<?xml version="1.0" encoding="UTF-8" standalone="no"?>
<!-- Created with Vectornator for iOS (http://vectornator.io/) -->

<svg
   xmlns:vectornator="http://vectornator.io"
   xmlns:dc="http://purl.org/dc/elements/1.1/"
   xmlns:cc="http://creativecommons.org/ns#"
   xmlns:rdf="http://www.w3.org/1999/02/22-rdf-syntax-ns#"
   xmlns:svg="http://www.w3.org/2000/svg"
   xmlns="http://www.w3.org/2000/svg"
   xmlns:sodipodi="http://sodipodi.sourceforge.net/DTD/sodipodi-0.dtd"
   xmlns:inkscape="http://www.inkscape.org/namespaces/inkscape"
   style="clip-rule:evenodd;fill-rule:evenodd;stroke-linecap:round;stroke-linejoin:round"
   xml:space="preserve"
   version="1.1"
   viewBox="0 0 300 300"
   id="svg88"
   sodipodi:docname="Logo.svg"
   width="300"
   height="300"
   inkscape:version="0.92.4 (5da689c313, 2019-01-14)"><sodipodi:namedview
   pagecolor="#ffffff"
   bordercolor="#666666"
   borderopacity="1"
   objecttolerance="10"
   gridtolerance="10"
   guidetolerance="10"
   inkscape:pageopacity="0"
   inkscape:pageshadow="2"
   inkscape:window-width="2560"
   inkscape:window-height="1387"
   id="namedview90"
   showgrid="false"
   inkscape:zoom="2.5173333"
   inkscape:cx="121.74523"
   inkscape:cy="154.99644"
   inkscape:window-x="-8"
   inkscape:window-y="-8"
   inkscape:window-maximized="1"
   inkscape:current-layer="Layer 1"
   inkscape:pagecheckerboard="true" />
<metadata
   id="metadata2">
<vectornator:setting
   key="DimensionsVisible"
   value="1" />
<vectornator:setting
   key="New"
   value="1" />
<vectornator:setting
   key="SnapToPoints"
   value="0" />
<vectornator:setting
   key="GuidesVisible"
   value="1" />
<vectornator:setting
   key="RulersVisible"
   value="1" />
<vectornator:setting
   key="SnapToEdges"
   value="0" />
<vectornator:setting
   key="DisplayWhiteBackground"
   value="1" />
<vectornator:setting
   key="ShowGrid"
   value="0" />
<vectornator:setting
   key="SnapToGuides"
   value="1" />
<vectornator:setting
   key="GridSpacing"
   value="45" />
<vectornator:setting
   key="SnapToGrid"
   value="0" />
<vectornator:setting
   key="Units"
   value="Pixels" />
<vectornator:setting
   key="DynamicGuides"
   value="0" />
<rdf:RDF><cc:Work
     rdf:about=""><dc:format>image/svg+xml</dc:format><dc:type
       rdf:resource="http://purl.org/dc/dcmitype/StillImage" /><dc:title></dc:title></cc:Work></rdf:RDF></metadata>
<defs
   id="defs19">
<linearGradient
   y1="479.54099"
   id="LinearGradient"
   x1="84.591003"
   y2="588.54401"
   x2="168.017"
   gradientUnits="userSpaceOnUse"
   gradientTransform="translate(34.5342,-253.32)">
<stop
   stop-color="#ff9c37"
   offset="0"
   id="stop4" />
<stop
   stop-color="#f61c1c"
   offset="1"
   id="stop6" />
</linearGradient>
<linearGradient
   y1="587.98999"
   id="LinearGradient_2"
   x1="178.228"
   y2="477.48801"
   x2="271.026"
   gradientUnits="userSpaceOnUse"
   gradientTransform="translate(34.5342,-253.32)">
<stop
   stop-color="#8bde4f"
   offset="0.332524"
   id="stop9" />
<stop
   stop-color="#f8f13c"
   offset="1"
   id="stop11" />
</linearGradient>
<linearGradient
   y1="486.561"
   id="LinearGradient_3"
   x1="62.612801"
   y2="352.285"
   x2="152.04401"
   gradientUnits="userSpaceOnUse"
   gradientTransform="translate(34.5342,-253.32)">
<stop
   stop-color="#ff9c37"
   offset="0.179612"
   id="stop14" />
<stop
   stop-color="#f8f13c"
   offset="1"
   id="stop16" />
</linearGradient>
</defs>
<g
   id="Layer 1"
   vectornator:layerName="Layer 1"
   transform="translate(0,-1200)">





















<g
   id="g4615"
   transform="translate(0.9863379,0.8609028)"
   style="stroke-width:5;stroke-miterlimit:4;stroke-dasharray:none"><path
     sodipodi:nodetypes="ccccsccc"
     style="opacity:1;fill:#f61c1c;stroke-width:5;stroke-miterlimit:4;stroke-dasharray:none"
     inkscape:connector-curvature="0"
     id="path43"
     d="m 140.50667,1487.0674 -0.0253,-54.207 C 49.899398,1404.3669 61.544259,1354.2027 86.656123,1304.3992 l -39.72261,-35.3704 c 0,0 -29.406308,32.6127 -33.853715,73.8867 -4.0133881,37.2461 14.816996,84.7082 29.480865,98.817 12.215397,11.7536 30.028022,26.2152 46.031046,33.7867 24.496081,11.5889 51.914961,11.5482 51.914961,11.5482 z" /><path
     sodipodi:nodetypes="cccccc"
     style="opacity:1;fill:#8bde4f;stroke-width:5;stroke-miterlimit:4;stroke-dasharray:none"
     inkscape:connector-curvature="0"
     id="path45"
     d="m 228.62559,1445.8967 -37.19401,-37.6913 c -19.01151,18.5836 -22.44038,19.7181 -49.66835,20.9861 l -0.60273,55.4896 c 0,0 38.27016,-0.7304 73.91592,-24.0031 28.45307,-24.5737 13.54917,-14.7813 13.54917,-14.7813 z" /><path
     sodipodi:nodetypes="ccccccc"
     style="opacity:1;fill:#ff9c37;stroke-width:5;stroke-miterlimit:4;stroke-dasharray:none"
     inkscape:connector-curvature="0"
     id="path47"
     d="m 49.953773,1267.6559 36.70235,36.7433 c 18.146787,-10.3749 40.156217,-23.1229 67.701757,-23.0547 l 10.01092,-52.7959 c 0,0 -30.44859,-7.948 -61.05616,1.0465 -23.730618,6.9734 -25.077055,8.1316 -42.101022,22.6841 -20.598698,17.6088 -11.257845,15.3767 -11.257845,15.3767 z" /><path
     sodipodi:nodetypes="cccccc"
     style="opacity:1;fill:#f8f13c;stroke-width:5;stroke-miterlimit:4;stroke-dasharray:none"
     inkscape:connector-curvature="0"
     id="path49"
     d="m 207.02574,1335.0507 c 4.75254,25.0894 2.53979,46.5161 -15.59416,73.1547 l 37.19401,37.6913 c 36.12879,-40.2266 40.80816,-69.3244 32.30201,-124.5908 l -33.44024,5.6724 z" /><path
     style="opacity:1;fill:none;stroke:#000000;stroke-width:5;stroke-linecap:round;stroke-linejoin:round;stroke-miterlimit:4;stroke-dasharray:none"
     inkscape:connector-curvature="0"
     id="path51"
     d="m 138.73539,1224.5396 c -69.81511,0 -126.404756,58.7748 -126.404756,131.2753 0,72.5004 56.589646,131.2763 126.404756,131.2763 69.81606,0 126.41469,-58.7759 126.41469,-131.2763 0,-72.5005 -56.59863,-131.2753 -126.41469,-131.2753 z" /><path
     style="opacity:1;fill:none;stroke:#000000;stroke-width:5;stroke-linecap:round;stroke-linejoin:round;stroke-miterlimit:4;stroke-dasharray:none"
     inkscape:connector-curvature="0"
     id="path53"
     d="m 68.814738,1355.9847 c 0,40.5588 31.837802,73.4447 71.117102,73.4447 39.2793,0 71.1247,-32.8859 71.1247,-73.4447 0,-40.5587 -31.8454,-73.4362 -71.1247,-73.4362 -39.2793,0 -71.117102,32.8775 -71.117102,73.4362 z" /><path
     sodipodi:nodetypes="cc"
     style="opacity:1;fill:none;stroke:#000000;stroke-width:5;stroke-linecap:round;stroke-linejoin:round;stroke-miterlimit:4;stroke-dasharray:none"
     inkscape:connector-curvature="0"
     id="path63"
     d="m 140.48137,1432.8604 0.0253,54.207" /><path
     sodipodi:nodetypes="cc"
     style="opacity:1;fill:none;stroke:#000000;stroke-width:5;stroke-linecap:round;stroke-linejoin:round;stroke-miterlimit:4;stroke-dasharray:none"
     inkscape:connector-curvature="0"
     id="path65"
     d="M 86.656123,1304.3992 47.760489,1266.4513" /><path
     sodipodi:nodetypes="cc"
     style="opacity:1;fill:none;stroke:#000000;stroke-width:5;stroke-linecap:round;stroke-linejoin:round;stroke-miterlimit:4;stroke-dasharray:none"
     inkscape:connector-curvature="0"
     id="path67"
     d="m 191.43158,1408.2054 37.19401,37.6913" /></g>







<path
   style="opacity:1;fill:#5eb9cd;stroke:#000000;stroke-width:5;stroke-linecap:round;stroke-linejoin:round;stroke-miterlimit:4;stroke-dasharray:none"
   d="M 212.25195 13.15625 C 171.62417 13.15625 138.69336 47.423906 138.69336 89.691406 C 138.69336 131.96001 171.62417 166.22266 212.25195 166.22266 C 252.8788 166.22266 285.81445 131.96001 285.81445 89.691406 C 285.81445 47.423906 252.8788 13.15625 212.25195 13.15625 z M 212.70703 60.384766 C 227.20919 60.384766 238.9668 72.439994 238.9668 87.308594 C 238.9668 102.17719 227.20919 114.23047 212.70703 114.23047 C 198.20415 114.23047 186.44922 102.17719 186.44922 87.308594 C 186.44922 72.439994 198.20415 60.384766 212.70703 60.384766 z "
   transform="translate(0,1200)"
   id="path4621" /></g>
</svg>